<svg xmlns="http://www.w3.org/2000/svg" enable-background="new 0 0 64 64" viewBox="0 0 64 64"><path d="M61,27.9998779c0.5527344,0,1-0.4477539,1-1v-6c0-0.5522461-0.4472656-1-1-1h-3v-1c0-0.5522461-0.4472656-1-1-1H25c-0.0933838,0-0.1774292,0.0291748-0.2631226,0.0531006l-5.1372681-3.8529053c-0.3554688-0.2666016-0.84375-0.2666016-1.1992188,0l-16,12C2.1484375,26.3885498,2,26.6849365,2,26.9998779v6c0,0.3637695,0.1972656,0.6982422,0.515625,0.8745117c0.3164063,0.1762695,0.7060547,0.1669922,1.0146484-0.0263672L6,32.3043823v16.6954956c0,0.5522461,0.4472656,1,1,1h14h6h4h26c0.5527344,0,1-0.4477539,1-1v-1h3c0.5527344,0,1-0.4477539,1-1v-6c0-0.5522461-0.4472656-1-1-1h-3v-2h3c0.5527344,0,1-0.4477539,1-1v-6c0-0.5522461-0.4472656-1-1-1h-3v-2H61z M60,21.9998779v4h-2v-4H60z M4,27.4998779l15-11.25l15,11.25v3.6958008l-14.4697266-9.0439453C19.3681641,22.0506592,19.1835938,21.9998779,19,21.9998779s-0.3681641,0.0507813-0.5302734,0.1518555L4,31.1956787V27.4998779z M8,31.0543213l11-6.8752441l11,6.8752441v16.9455566h-2v-11c0-0.5522461-0.4472656-1-1-1h-6c-0.5527344,0-1,0.4477539-1,1v11H8V31.0543213z M22,47.9998779v-10h4v10H22z M56,47.9998779H32V32.3043823l2.4697266,1.5436401C34.6318359,33.9490967,34.8154297,33.9998779,35,33.9998779c0.1669922,0,0.3339844-0.0415039,0.484375-0.1254883C35.8027344,33.6981201,36,33.3636475,36,32.9998779v-6c0-0.3149414-0.1484375-0.6113281-0.4003906-0.7998047l-8.2669067-6.2001953H56v1v6v4v6v4v6V47.9998779z M60,41.9998779v4h-2v-4H60z M60,31.9998779v4h-2v-4H60z"/><path d="M50 22.9998779H40c-.5527344 0-1 .4477539-1 1v6c0 .5522461.4472656 1 1 1h10c.5527344 0 1-.4477539 1-1v-6C51 23.4476318 50.5527344 22.9998779 50 22.9998779zM49 28.9998779h-8v-4h8V28.9998779zM50 34.9998779H40c-.5527344 0-1 .4477539-1 1s.4472656 1 1 1h10c.5527344 0 1-.4477539 1-1S50.5527344 34.9998779 50 34.9998779zM50 38.9998779H40c-.5527344 0-1 .4477539-1 1s.4472656 1 1 1h10c.5527344 0 1-.4477539 1-1S50.5527344 38.9998779 50 38.9998779zM50 42.9998779H40c-.5527344 0-1 .4477539-1 1s.4472656 1 1 1h10c.5527344 0 1-.4477539 1-1S50.5527344 42.9998779 50 42.9998779z"/></svg>